<svg width="24" height="24" viewBox="0 0 24 24" fill="none" xmlns="http://www.w3.org/2000/svg">
<g clip-path="url(#clip0_22_1258)">
<path fill-rule="evenodd" clip-rule="evenodd" d="M19.2814 3.97934C19.367 3.95568 19.451 3.93267 19.5336 3.91004C20.2554 3.71232 20.8715 3.54355 21.5244 3.22835C21.7014 3.1325 21.9084 3.08932 22.1214 3.11536C22.6231 3.17667 23.0001 3.60261 23.0001 4.10797V4.10897C23.0001 4.20085 22.9875 4.2908 22.9636 4.37677C22.771 5.12788 22.2635 6.15995 21.8659 6.94043C21.7632 7.14199 21.6687 7.32475 21.5821 7.49231C21.4832 7.68379 21.3945 7.85542 21.3154 8.01261C21.2571 8.1286 21.213 8.21933 21.182 8.28678C21.1742 9.58862 20.9951 10.884 20.6492 12.1396L20.6478 12.1444C19.4203 16.5141 16.2065 19.4452 12.3131 20.5763C8.87709 21.5737 4.99812 20.8719 1.52153 18.977C1.11374 18.7548 0.912642 18.281 1.03606 17.8332C1.15947 17.3855 1.57491 17.0817 2.039 17.0997C3.44502 17.1544 4.6941 16.8014 5.94842 16.1575C4.65017 15.3553 3.71768 14.4203 3.07835 13.4102C2.19621 12.0165 1.91904 10.5538 1.9319 9.25147C1.94469 7.95679 2.24338 6.804 2.53097 5.98485C2.67574 5.57249 2.82037 5.23714 2.93066 5.00147C2.98588 4.88346 3.03275 4.7899 3.06707 4.7236C3.08423 4.69044 3.09829 4.66405 3.1087 4.64478L3.12155 4.62125L3.12581 4.61356L3.12739 4.61074L3.12803 4.6096C3.12831 4.6091 3.12858 4.60862 4.0001 5.09897L3.12858 4.60862C3.29619 4.3107 3.60438 4.11904 3.9457 4.10045C4.28703 4.08185 4.61421 4.2389 4.8132 4.51684C6.29896 6.59212 8.49453 7.86221 10.9998 8.07154C10.9883 5.96628 12.3127 4.15817 14.2694 3.42547C15.8937 2.81727 17.8162 2.7468 19.2814 3.97934ZM4.3005 7.00523C4.10579 7.6413 3.94013 8.42798 3.93181 9.27122C3.92191 10.273 4.13337 11.3374 4.7683 12.3406C5.40179 13.3415 6.50381 14.3558 8.39974 15.1823C8.73518 15.3285 8.96396 15.6463 8.99621 16.0108C9.02847 16.3753 8.85905 16.7284 8.5545 16.9312C7.60281 17.5652 6.62154 18.1193 5.56931 18.5095C7.72357 19.1388 9.85922 19.206 11.7551 18.6557M4.3005 7.00523C6.314 9.04695 9.03725 10.1751 12.0257 10.0986C12.5678 10.0848 13.0001 9.64129 13.0001 9.09897V8.09897L13 8.08525C12.9831 6.85408 13.7462 5.757 14.9708 5.29847C16.3614 4.77774 17.5144 4.93015 18.2517 5.76219C18.509 6.05256 18.911 6.16789 19.2831 6.05808C19.4914 5.99663 19.7106 5.9368 19.938 5.87476C20.0242 5.85123 20.1116 5.82738 20.2 5.80301C20.1617 5.87926 20.1229 5.95584 20.0838 6.03251C19.9951 6.20669 19.9026 6.38586 19.8145 6.55645C19.7078 6.76299 19.6077 6.95694 19.5286 7.1142C19.454 7.2626 19.384 7.40588 19.3312 7.52644C19.3052 7.58576 19.2762 7.65552 19.2521 7.72652C19.2516 7.72774 19.2512 7.72915 19.2506 7.73072C19.2363 7.77243 19.1811 7.93354 19.1821 8.12651C19.1886 9.302 19.0337 10.4728 18.7216 11.6061C17.6906 15.2729 15.0209 17.7069 11.7551 18.6557" fill="#1F2025"/>
</g>
<defs>
<clipPath id="clip0_22_1258">
<rect width="24" height="24" fill="white"/>
</clipPath>
</defs>
</svg>
