<svg width="430" height="430" viewBox="0 0 430 430" fill="none" xmlns="http://www.w3.org/2000/svg">
<g clip-path="url(#clip0_59_937)">
<path d="M369.026 271.725H254.491V380.859H369.026V271.725Z" fill="#1F2025" stroke="white" stroke-width="3" stroke-miterlimit="10"/>
<path d="M195.65 146.475C205.781 123.651 232.475 113.365 255.3 123.496C278.124 133.627 288.41 160.321 278.279 183.145L195.65 146.475Z" fill="#1F2025" stroke="white" stroke-width="3" stroke-miterlimit="10" stroke-linecap="round" stroke-linejoin="round"/>
<path d="M250.742 116.014L288.238 78.5527L297.766 88.3567L260.288 125.801L250.742 116.014Z" fill="#1F2025" stroke="white" stroke-width="3" stroke-miterlimit="10"/>
<path d="M383.078 152.375L296.562 78.5527L287.532 88.9071L373.739 162.42L383.078 152.375Z" fill="#1F2025" stroke="white" stroke-width="3" stroke-miterlimit="10"/>
<path d="M345.479 262.747L384.764 159.117L371.348 154.68L331.702 260.133L345.479 262.747Z" fill="#1F2025" stroke="white" stroke-width="3" stroke-miterlimit="10"/>
<path d="M396.924 271.725H287.532V270.848C287.532 262.575 294.24 255.85 302.531 255.85H381.943C390.216 255.85 396.942 262.558 396.942 270.848V271.725H396.924Z" fill="#1F2025" stroke="white" stroke-width="3" stroke-miterlimit="10"/>
<path d="M313.281 250.828H308.258V255.851H313.281V250.828Z" fill="#1F2025" stroke="white" stroke-width="3" stroke-miterlimit="10"/>
<path d="M375.906 172.757C384.664 172.757 391.764 165.657 391.764 156.898C391.764 148.14 384.664 141.04 375.906 141.04C367.148 141.04 360.048 148.14 360.048 156.898C360.048 165.657 367.148 172.757 375.906 172.757Z" fill="#1F2025" stroke="white" stroke-width="3" stroke-miterlimit="10"/>
<path d="M375.906 163.795C379.715 163.795 382.803 160.707 382.803 156.898C382.803 153.089 379.715 150.001 375.906 150.001C372.097 150.001 369.009 153.089 369.009 156.898C369.009 160.707 372.097 163.795 375.906 163.795Z" fill="white" stroke="white" stroke-width="3" stroke-miterlimit="10"/>
<path d="M292.4 99.8975C301.158 99.8975 308.258 92.7974 308.258 84.0391C308.258 75.2807 301.158 68.1807 292.4 68.1807C283.642 68.1807 276.542 75.2807 276.542 84.0391C276.542 92.7974 283.642 99.8975 292.4 99.8975Z" fill="#1F2025" stroke="white" stroke-width="3" stroke-miterlimit="10"/>
<path d="M292.4 90.936C296.209 90.936 299.297 87.848 299.297 84.0388C299.297 80.2296 296.209 77.1416 292.4 77.1416C288.591 77.1416 285.503 80.2296 285.503 84.0388C285.503 87.848 288.591 90.936 292.4 90.936Z" fill="white" stroke="white" stroke-width="3" stroke-miterlimit="10"/>
<path d="M256.142 136.155C264.901 136.155 272.001 129.055 272.001 120.297C272.001 111.539 264.901 104.438 256.142 104.438C247.384 104.438 240.284 111.539 240.284 120.297C240.284 129.055 247.384 136.155 256.142 136.155Z" fill="#1F2025" stroke="white" stroke-width="3" stroke-miterlimit="10"/>
<path d="M256.142 127.194C259.952 127.194 263.04 124.106 263.04 120.297C263.04 116.487 259.952 113.399 256.142 113.399C252.333 113.399 249.245 116.487 249.245 120.297C249.245 124.106 252.333 127.194 256.142 127.194Z" fill="white" stroke="white" stroke-width="3" stroke-miterlimit="10"/>
<path d="M361.682 251.773H322.775V255.85H361.682V251.773Z" fill="white" stroke="white" stroke-width="3" stroke-miterlimit="10"/>
<path d="M308.258 364.898H288.96V373.688H308.258V364.898Z" fill="#1F2025" stroke="#1F2025" stroke-width="3" stroke-miterlimit="10"/>
</g>
<defs>
<clipPath id="clip0_59_937">
<rect width="430" height="430" fill="white"/>
</clipPath>
</defs>
</svg>
